<svg xmlns="http://www.w3.org/2000/svg" viewBox="0 0 100 100">
  <defs>
    <linearGradient id="fireGradient" x1="0%" y1="0%" x2="0%" y2="100%">
      <stop offset="0%" style="stop-color:#FF6B6B;stop-opacity:1" />
      <stop offset="50%" style="stop-color:#FFA500;stop-opacity:1" />
      <stop offset="100%" style="stop-color:#FFD700;stop-opacity:1" />
    </linearGradient>
  </defs>
  
  <!-- 火焰主体 -->
  <path d="M50 10 C60 20, 70 30, 70 45 C70 60, 60 70, 50 75 C40 70, 30 60, 30 45 C30 30, 40 20, 50 10 Z" 
        fill="url(#fireGradient)" 
        stroke="#FF4500" 
        stroke-width="1.5"/>
  
  <!-- 火焰内部 -->
  <path d="M50 25 C55 30, 58 35, 58 42 C58 50, 54 55, 50 58 C46 55, 42 50, 42 42 C42 35, 45 30, 50 25 Z" 
        fill="#FFD700" 
        opacity="0.8"/>
  
  <!-- 火焰核心 -->
  <ellipse cx="50" cy="45" rx="8" ry="12" fill="#FFFFFF" opacity="0.6"/>
  
  <!-- 底部装饰 -->
  <circle cx="50" cy="85" r="8" fill="#409EFF" opacity="0.8"/>
  <text x="50" y="89" font-family="Arial" font-size="10" fill="white" text-anchor="middle" font-weight="bold">监</text>
</svg>

